<svg viewBox="0 0 220 240.91452" xmlns="http://www.w3.org/2000/svg">
  <path d="m 110.50792,0 c 0.11538,0.01794 0.22572,0.05652 0.34037,0.07563 9.06095,0.52321 16.61985,6.22371 19.62818,14.06878 4.41944,9.56863 1.43333,21.40245 -12.06433,27.57023 v 15.39242 h 44.96708 c 2.65162,0 2.36943,13.86073 0.37821,13.91749 l -44.89146,-0.11347 c -0.0503,10.714054 -0.17456,21.432444 -0.0378,32.14636 0.5056,22.13105 0.92876,44.27471 1.13458,66.4106 0.0909,11.98836 0.51688,23.45899 0.98328,25.52799 1.75792,7.79832 6.66305,8.84466 21.82173,4.6896 15.76454,-4.3211 35.35558,-13.87976 38.65128,-18.90964 2.62003,-3.99877 3.06594,-7.47591 1.1724,-9.56827 -0.94406,-1.04316 -2.36745,-1.65757 -3.13901,-1.3615 -0.85314,0.32731 -1.73008,-0.34235 -2.26915,-1.77748 -1.89753,-5.05193 4.43067,-12.55103 16.90522,-19.96857 3.03199,-1.80293 7.97338,-5.65568 11.0054,-8.58499 3.18129,-3.07349 5.97116,-5.02851 6.61835,-4.61394 2.01371,1.28997 6.14661,10.62676 7.41259,16.75393 2.54496,12.31733 -0.69415,30.4997 -6.69402,37.63015 -3.16724,3.764 -4.93457,3.80492 -5.67289,0.11347 -1.30086,-6.5044 -9.40948,-4.65183 -18.22886,4.19794 -6.98001,7.00402 -20.23095,17.14282 -26.01967,19.89292 -2.20505,1.04759 -5.38056,2.74777 -7.03439,3.78192 -1.65377,1.03412 -6.63305,3.10556 -11.04322,4.61393 -9.23919,3.16009 -20.03366,8.7608 -24.31777,12.59384 -1.62752,1.4561 -5.79018,4.11683 -7.41257,5.3325 -2.20722,1.59483 -3.19732,1.34016 -5.37034,0 -1.6224,-1.21567 -5.82286,-3.8764 -7.45037,-5.3325 -4.28413,-3.83304 -15.07858,-9.43375 -24.317779,-12.59384 -4.41016,-1.50837 -9.38945,-3.57981 -11.04323,-4.61393 -1.6538,-1.03415 -4.8293,-2.73433 -7.03439,-3.78192 -5.78874,-2.7501 -19.03962,-12.8889 -26.01963,-19.89292 -8.81937,-8.84977 -16.89016,-10.70234 -18.19105,-4.19794 -0.73831,3.69145 -2.50568,3.65053 -5.6728995,-0.11347 -5.99988,-7.13045 -9.27678,-25.31282 -6.73183006,-37.63015 1.26598006,-6.12717 5.39888006,-15.46396 7.41257006,-16.75393 0.64719,-0.41457 3.4370795,1.54045 6.6183695,4.61394 3.03202,2.92931 7.97344,6.78206 11.00541,8.58499 12.47453,7.41754 18.80271,14.91664 16.90522,19.96857 -0.53908,1.43513 -1.41603,2.10479 -2.26918,1.77748 -0.77155,-0.29607 -2.1571,0.31834 -3.10118,1.3615 -1.89351,2.09236 -1.48543,5.5695 1.1346,9.56827 3.29569,5.02988 22.88672,14.58854 38.65126,18.90964 15.158659,4.15506 20.063799,3.10872 21.821689,-4.6896 0.46641,-2.069 0.8924,-13.53963 0.98331,-25.52799 0.20582,-22.13589 0.6668,-44.27955 1.17241,-66.4106 0.13674,-10.713916 -0.0253,-21.432306 -0.0756,-32.14636 l -44.891469,0.11347 c -1.99125,-0.05676 -2.27341,-13.91749 0.3782,-13.91749 H 101.58262 V 41.71464 C 88.19652,35.59786 85.14375,23.89794 89.40484,14.3713 92.34819,6.41253 100.0056,0.61226 109.14648,0.07563 109.26308,0.05617 109.36946,0.01826 109.48684,0 c 0.17791,0 0.35256,0.03386 0.52947,0.03782 C 110.18342,0.03422 110.33996,0 110.50796,0 Z m -0.49165,10.47594 c -4.88639,0 -9.02264,3.11226 -10.40028,7.37474 -0.21196,0.65577 -0.3797,1.33826 -0.45383,2.04226 -0.0371,0.352 -0.0379,0.69749 -0.0378,1.05893 -1.2e-4,0.36141 7.4e-4,0.74475 0.0378,1.09675 0.0741,0.704 0.24187,1.38647 0.45383,2.04224 1.37764,4.2625 5.51387,7.33695 10.40028,7.33695 4.51057,0 8.36988,-2.63314 10.0221,-6.39147 0.27537,-0.62638 0.49806,-1.28494 0.64292,-1.9666 0.14488,-0.68163 0.18931,-1.39502 0.1891,-2.11787 2.1e-4,-0.72284 -0.0442,-1.43623 -0.1891,-2.11789 -0.14486,-0.68163 -0.36755,-1.34021 -0.64292,-1.9666 -1.65222,-3.75831 -5.51153,-6.39144 -10.0221,-6.39144 z" style="stroke:none" />
</svg>
